<?xml version="1.0" encoding="utf-8"?>
<!-- Generator: Adobe Illustrator 16.0.0, SVG Export Plug-In . SVG Version: 6.00 Build 0)  -->
<!DOCTYPE svg PUBLIC "-//W3C//DTD SVG 1.1//EN" "http://www.w3.org/Graphics/SVG/1.1/DTD/svg11.dtd">
<svg version="1.1" id="Layer_1" xmlns="http://www.w3.org/2000/svg" xmlns:xlink="http://www.w3.org/1999/xlink" x="0px" y="0px"
	 width="1400px" height="980px" viewBox="0 0 1400 980" enable-background="new 0 0 1400 980" xml:space="preserve">
<g>
	<g>
		<g>
			<rect fill="#FFFFFF" width="1400" height="980"/>
		</g>
	</g>
	<g>
		<path fill="#00AED8" d="M1123.6,891.9V468.3c0-175.4-142.2-317.7-317.7-317.7H594.1c-175.4,0-317.7,142.2-317.7,317.7v423.6
			H1123.6z"/>
		<path d="M1123.6,894.5H276.4c-1.4,0-2.6-1.2-2.6-2.6V468.3c0-176.6,143.7-320.3,320.3-320.3h211.8
			c176.6,0,320.3,143.7,320.3,320.3v423.6C1126.2,893.3,1125,894.5,1123.6,894.5z M279.1,889.3h841.9V468.3
			c0-173.7-141.3-315.1-315.1-315.1H594.1c-173.7,0-315.1,141.3-315.1,315.1V889.3z"/>
	</g>
	<g>
		<path fill="#009ABF" d="M1004.5,889.7V548.9c0-98.2-79.6-177.8-177.8-177.8H663.8c-98.2,0-177.8,79.6-177.8,177.8v340.7H1004.5z"
			/>
	</g>
	<g>
		<rect x="622.4" y="565.3" fill="#FFFFFF" width="32.3" height="117.6"/>
		<path d="M654.8,685.6h-32.3c-1.4,0-2.6-1.2-2.6-2.6V565.3c0-1.4,1.2-2.6,2.6-2.6h32.3c1.4,0,2.6,1.2,2.6,2.6V683
			C657.4,684.4,656.2,685.6,654.8,685.6z M625,680.4h27.1V568H625V680.4z"/>
	</g>
	<g>
		<rect x="598.8" y="723.6" fill="#FFFFFF" width="32.3" height="168.3"/>
		<path d="M631.1,894.5h-32.3c-1.4,0-2.6-1.2-2.6-2.6V723.6c0-1.4,1.2-2.6,2.6-2.6h32.3c1.4,0,2.6,1.2,2.6,2.6v168.3
			C633.7,893.3,632.5,894.5,631.1,894.5z M601.4,889.3h27.1V726.2h-27.1V889.3z"/>
	</g>
	<g>
		<rect x="745.2" y="565.3" fill="#FFFFFF" width="32.3" height="117.6"/>
		<path d="M777.6,685.6h-32.3c-1.4,0-2.6-1.2-2.6-2.6V565.3c0-1.4,1.2-2.6,2.6-2.6h32.3c1.4,0,2.6,1.2,2.6,2.6V683
			C780.2,684.4,779,685.6,777.6,685.6z M747.8,680.4H775V568h-27.1V680.4z"/>
	</g>
	<g>
		<rect x="768.9" y="723.6" fill="#FFFFFF" width="32.3" height="168.3"/>
		<path d="M801.2,894.5h-32.3c-1.4,0-2.6-1.2-2.6-2.6V723.6c0-1.4,1.2-2.6,2.6-2.6h32.3c1.4,0,2.6,1.2,2.6,2.6v168.3
			C803.8,893.3,802.7,894.5,801.2,894.5z M771.5,889.3h27.1V726.2h-27.1V889.3z"/>
	</g>
	<g>
		<path fill="#FF897A" d="M826.3,683h-20.9H726h-99.1h-32.3h-20.8c-11.2,0-20.3,9.1-20.3,20.3c0,11.2,9.1,20.3,20.3,20.3h20.8h32.3
			H726h79.4h20.9c11.2,0,20.3-9.1,20.3-20.3C846.6,692.1,837.5,683,826.3,683z"/>
		<path d="M826.3,726.2H573.7c-12.6,0-22.9-10.3-22.9-22.9c0-12.6,10.3-22.9,22.9-22.9h252.5c12.6,0,22.9,10.3,22.9,22.9
			C849.2,715.9,838.9,726.2,826.3,726.2z M573.7,685.6c-9.8,0-17.7,7.9-17.7,17.7c0,9.8,7.9,17.7,17.7,17.7h252.5
			c9.8,0,17.7-7.9,17.7-17.7c0-9.8-7.9-17.7-17.7-17.7H573.7z"/>
	</g>
	<g>
		<path fill="#FF897A" d="M823,523.2c0,23.3-18.9,42.2-42.2,42.2H619.1c-23.3,0-42.2-18.9-42.2-42.2V387.4
			c0-23.3,18.9-42.2,42.2-42.2h161.7c23.3,0,42.2,18.9,42.2,42.2V523.2z"/>
		<path d="M780.9,568H619.1c-24.7,0-44.8-20.1-44.8-44.8V387.4c0-24.7,20.1-44.8,44.8-44.8h161.7c24.7,0,44.8,20.1,44.8,44.8v135.8
			C825.7,547.9,805.6,568,780.9,568z M619.1,347.8c-21.8,0-39.6,17.8-39.6,39.6v135.8c0,21.8,17.8,39.6,39.6,39.6h161.7
			c21.8,0,39.6-17.8,39.6-39.6V387.4c0-21.8-17.8-39.6-39.6-39.6H619.1z"/>
	</g>
	<g>
		<path fill="#00AED8" d="M776.8,424.3c0,12-9.7,21.7-21.7,21.7H644.9c-12,0-21.7-9.7-21.7-21.7l0,0c0-12,9.7-21.7,21.7-21.7h110.1
			C767,402.6,776.8,412.3,776.8,424.3L776.8,424.3z"/>
		<path d="M755.1,448.6H644.9c-13.4,0-24.3-10.9-24.3-24.3c0-13.4,10.9-24.3,24.3-24.3h110.1c13.4,0,24.3,10.9,24.3,24.3
			C779.4,437.7,768.5,448.6,755.1,448.6z M644.9,405.2c-10.5,0-19.1,8.6-19.1,19.1c0,10.5,8.6,19.1,19.1,19.1h110.1
			c10.5,0,19.1-8.6,19.1-19.1c0-10.5-8.6-19.1-19.1-19.1H644.9z"/>
	</g>
	<g>
		<path fill="#FFE48E" d="M971.2,645.9c0,7.1-5.8,12.9-12.9,12.9H441.7c-7.1,0-12.9-5.8-12.9-12.9v-26.9c0-7.1,5.8-12.9,12.9-12.9
			h516.7c7.1,0,12.9,5.8,12.9,12.9V645.9z"/>
		<path d="M958.3,661.4H441.7c-8.5,0-15.5-7-15.5-15.5v-26.9c0-8.5,7-15.5,15.5-15.5h516.7c8.5,0,15.5,7,15.5,15.5v26.9
			C973.8,654.5,966.9,661.4,958.3,661.4z M441.7,608.8c-5.7,0-10.3,4.6-10.3,10.3v26.9c0,5.7,4.6,10.3,10.3,10.3h516.7
			c5.7,0,10.3-4.6,10.3-10.3v-26.9c0-5.7-4.6-10.3-10.3-10.3H441.7z"/>
	</g>
	<g>
		<rect x="470.1" y="658.8" fill="#FFFFFF" width="43" height="233.1"/>
		<path d="M513.1,894.5h-43c-1.4,0-2.6-1.2-2.6-2.6V658.8c0-1.4,1.2-2.6,2.6-2.6h43c1.4,0,2.6,1.2,2.6,2.6v233.1
			C515.7,893.3,514.5,894.5,513.1,894.5z M472.7,889.3h37.7V661.4h-37.7V889.3z"/>
	</g>
	<g>
		<rect x="886.9" y="658.8" fill="#FFFFFF" width="43" height="233.1"/>
		<path d="M929.9,894.5h-43c-1.4,0-2.6-1.2-2.6-2.6V658.8c0-1.4,1.2-2.6,2.6-2.6h43c1.4,0,2.6,1.2,2.6,2.6v233.1
			C932.5,893.3,931.3,894.5,929.9,894.5z M889.5,889.3h37.7V661.4h-37.7V889.3z"/>
	</g>
	<g>
		<g>
			<polygon fill="#FFFFFF" points="1300.4,441.6 1052.7,441.6 1052.7,840.6 1253,840.6 1300.4,793.2 			"/>
			<path d="M1253,843.2h-200.3c-1.4,0-2.6-1.2-2.6-2.6v-399c0-1.4,1.2-2.6,2.6-2.6h247.7c1.4,0,2.6,1.2,2.6,2.6v351.6
				c0,0.7-0.3,1.4-0.8,1.8l-47.4,47.4C1254.4,842.9,1253.7,843.2,1253,843.2z M1055.3,838H1252l45.9-45.9v-348h-242.5V838z"/>
		</g>
		<g>
			<line fill="#FFFFFF" x1="1052.7" y1="477.3" x2="1266.3" y2="477.3"/>
			<path d="M1266.3,479.9h-213.6c-1.4,0-2.6-1.2-2.6-2.6c0-1.4,1.2-2.6,2.6-2.6h213.6c1.4,0,2.6,1.2,2.6,2.6
				C1269,478.8,1267.8,479.9,1266.3,479.9z"/>
		</g>
		<g>
			<line fill="#FFFFFF" x1="1052.7" y1="524.1" x2="1266.3" y2="524.1"/>
			<path d="M1266.3,526.7h-213.6c-1.4,0-2.6-1.2-2.6-2.6s1.2-2.6,2.6-2.6h213.6c1.4,0,2.6,1.2,2.6,2.6S1267.8,526.7,1266.3,526.7z"
				/>
		</g>
		<g>
			<line fill="#FFFFFF" x1="1052.7" y1="570.9" x2="1266.3" y2="570.9"/>
			<path d="M1266.3,573.5h-213.6c-1.4,0-2.6-1.2-2.6-2.6s1.2-2.6,2.6-2.6h213.6c1.4,0,2.6,1.2,2.6,2.6S1267.8,573.5,1266.3,573.5z"
				/>
		</g>
		<g>
			<line fill="#FFFFFF" x1="1052.7" y1="617.7" x2="1266.3" y2="617.7"/>
			<path d="M1266.3,620.3h-213.6c-1.4,0-2.6-1.2-2.6-2.6s1.2-2.6,2.6-2.6h213.6c1.4,0,2.6,1.2,2.6,2.6S1267.8,620.3,1266.3,620.3z"
				/>
		</g>
		<g>
			<line fill="#FFFFFF" x1="1052.7" y1="664.5" x2="1266.3" y2="664.5"/>
			<path d="M1266.3,667.1h-213.6c-1.4,0-2.6-1.2-2.6-2.6s1.2-2.6,2.6-2.6h213.6c1.4,0,2.6,1.2,2.6,2.6S1267.8,667.1,1266.3,667.1z"
				/>
		</g>
		<g>
			<line fill="#FFFFFF" x1="1052.7" y1="711.3" x2="1266.3" y2="711.3"/>
			<path d="M1266.3,713.9h-213.6c-1.4,0-2.6-1.2-2.6-2.6c0-1.4,1.2-2.6,2.6-2.6h213.6c1.4,0,2.6,1.2,2.6,2.6
				C1269,712.7,1267.8,713.9,1266.3,713.9z"/>
		</g>
		<g>
			<line fill="#FFFFFF" x1="1052.7" y1="758.1" x2="1266.3" y2="758.1"/>
			<path d="M1266.3,760.7h-213.6c-1.4,0-2.6-1.2-2.6-2.6c0-1.4,1.2-2.6,2.6-2.6h213.6c1.4,0,2.6,1.2,2.6,2.6
				C1269,759.5,1267.8,760.7,1266.3,760.7z"/>
		</g>
		<g>
			<line fill="#FFFFFF" x1="1052.7" y1="804.9" x2="1266.3" y2="804.9"/>
			<path d="M1266.3,807.5h-213.6c-1.4,0-2.6-1.2-2.6-2.6c0-1.4,1.2-2.6,2.6-2.6h213.6c1.4,0,2.6,1.2,2.6,2.6
				C1269,806.3,1267.8,807.5,1266.3,807.5z"/>
		</g>
		<g>
			<polygon fill="#FFFFFF" points="1253,840.6 1300.4,793.2 1253,793.2 			"/>
			<path d="M1253,843.2c-0.3,0-0.7-0.1-1-0.2c-1-0.4-1.6-1.4-1.6-2.4v-47.4c0-1.4,1.2-2.6,2.6-2.6h47.4c1.1,0,2,0.6,2.4,1.6
				c0.4,1,0.2,2.1-0.6,2.8l-47.4,47.4C1254.4,842.9,1253.7,843.2,1253,843.2z M1255.7,795.8v38.5l38.5-38.5H1255.7z"/>
		</g>
	</g>
	<g>
		<g>
			<g>
				<path fill="#FFFFFF" d="M674.1,582.8c0.3,0.3,9.5,8,25.9,8c16.4,0,25.8-7.9,25.9-8l2.4-2.1l90,8.5v-19.3c0,0-85-44.3-118.3-2.5
					c-33.3-41.9-118.3,2.5-118.3,2.5v19.3l90-8.5L674.1,582.8z"/>
				<path d="M700,593.4c-17.4,0-27.2-8.3-27.6-8.6l-1.6-1.4l-88.9,8.4c-0.7,0.1-1.5-0.2-2-0.7c-0.5-0.5-0.9-1.2-0.9-1.9v-19.3
					c0-1,0.5-1.9,1.4-2.3c1.6-0.8,40.2-20.8,76-20.8c18.9,0,33.5,5.6,43.5,16.6c10-11,24.6-16.6,43.5-16.6c35.8,0,74.4,19.9,76,20.8
					c0.9,0.5,1.4,1.3,1.4,2.3v19.3c0,0.7-0.3,1.4-0.9,1.9c-0.5,0.5-1.3,0.7-2,0.7l-88.9-8.4l-1.5,1.4
					C727.5,584.9,717.7,593.4,700,593.4z M671.7,578.1c0.6,0,1.3,0.2,1.7,0.7l2.4,2.1c0.1,0,8.7,7.3,24.2,7.3
					c15.3,0,24.1-7.3,24.2-7.4l2.4-2.1c0.5-0.5,1.2-0.7,2-0.6l87.1,8.2v-14.9c-7.3-3.6-41.4-19.5-72.2-19.5
					c-18.5,0-32.5,5.7-41.4,17c-1,1.2-3.1,1.2-4.1,0c-9-11.3-22.9-17-41.4-17c-30.8,0-64.9,15.9-72.2,19.5v14.9l87.1-8.2
					C671.6,578.1,671.6,578.1,671.7,578.1z"/>
			</g>
			<g>
				<path fill="#FFFFFF" d="M818.3,589.2l-90-8.5l-2.4,2.1c-0.1,0.1-9.5,8-25.9,8c-16.4,0-25.6-7.7-25.9-8l-2.4-2.1l-90,8.5
					l-15.4,1.5v14.8l100.7-9.5c5,3.4,16.3,9.6,32.9,9.6s28-6.2,32.9-9.6l100.7,9.5v-14.8L818.3,589.2z"/>
				<path d="M700,608.2c-16.3,0-27.8-5.7-33.6-9.5l-99.8,9.4c-0.7,0.1-1.5-0.2-2-0.7c-0.5-0.5-0.9-1.2-0.9-1.9v-14.8
					c0-1.3,1-2.5,2.4-2.6l105.4-10c0.8-0.1,1.4,0.2,2,0.6l2.4,2.1c0.1,0,8.7,7.3,24.2,7.3c15.3,0,24.1-7.3,24.2-7.4l2.4-2.1
					c0.5-0.5,1.2-0.7,2-0.6l105.4,10c1.3,0.1,2.4,1.3,2.4,2.6v14.8c0,0.7-0.3,1.4-0.9,1.9c-0.5,0.5-1.3,0.7-2,0.7l-99.8-9.4
					C727.8,602.5,716.3,608.2,700,608.2z M667.1,593.4c0.5,0,1,0.2,1.5,0.5c5,3.4,15.8,9.2,31.5,9.2c15.7,0,26.4-5.7,31.5-9.2
					c0.5-0.3,1.1-0.5,1.7-0.4l97.9,9.3v-9.6l-101.9-9.6l-1.5,1.4c-0.1,0.1-10.2,8.6-27.6,8.6c-17.4,0-27.2-8.3-27.6-8.6l-1.6-1.4
					L569,593.1v9.6l97.9-9.3C666.9,593.4,667,593.4,667.1,593.4z"/>
			</g>
		</g>
		<g>
			<path d="M700,570c-0.4,0-0.8-0.1-1.2-0.3c-1.3-0.7-1.8-2.2-1.1-3.5c0.9-1.8,23.7-43.8,106.6-55.6c1.4-0.2,2.7,0.8,2.9,2.2
				c0.2,1.4-0.8,2.7-2.2,2.9c-80,11.3-102.5,52.4-102.7,52.8C701.8,569.5,700.9,570,700,570z"/>
		</g>
	</g>
	<g>
		<g>
			<path fill="#FFFFFF" d="M1172.2,162.3c-10.8-2.7-22-1.1-32.7,3.8c-3.5,1.6-6.9,3.7-10.3,6c-5.8,2.4-12.2,3.8-18.8,3.8
				c-6.8,0-13.2-1.4-19-3.8c-3.3-2.3-6.7-4.3-10.1-5.9c-10.8-5-22-6.6-32.9-3.9c-35.3,8.9-52.9,59.8-39.3,113.8
				c13.6,53.9,53.2,90.5,88.5,81.6c4.6-1.1,8.8-3,12.8-5.5c4,2.5,8.2,4.4,12.8,5.5c35.3,8.9,74.9-27.6,88.5-81.6
				C1225.1,222.1,1207.5,171.1,1172.2,162.3z"/>
			<path d="M1133.9,361.6C1133.9,361.6,1133.9,361.6,1133.9,361.6c-3.9,0-7.7-0.5-11.4-1.4c-4.2-1-8.2-2.7-12.1-5
				c-3.9,2.3-7.9,3.9-12.1,5c-3.7,0.9-7.6,1.4-11.4,1.4c-34.1,0-67.9-35.7-80.2-84.9c-6.7-26.6-6.2-53.3,1.4-75.3
				c7.7-22.3,21.9-37.1,39.8-41.7c11.1-2.8,23-1.4,34.7,4.1c3.2,1.5,6.6,3.5,10.2,6c11.3,4.6,24,4.7,35.3,0
				c3.6-2.5,7.1-4.5,10.5-6.1c11.6-5.4,23.5-6.8,34.5-4c36.6,9.2,55.1,61.7,41.2,116.9C1201.7,325.9,1168,361.6,1133.9,361.6z
				 M1110.3,349.5c0.5,0,1,0.1,1.4,0.4c3.9,2.4,7.9,4.1,12,5.2c3.3,0.8,6.7,1.3,10.2,1.3c31.2,0,63.6-34.8,75.2-81
				c13.2-52.5-3.6-102.1-37.4-110.6c-9.9-2.5-20.5-1.2-31,3.7c-3.2,1.5-6.5,3.4-9.9,5.8c-0.1,0.1-0.3,0.2-0.5,0.3
				c-12.8,5.3-27.2,5.3-39.8,0c-0.2-0.1-0.3-0.2-0.5-0.3c-3.5-2.4-6.7-4.3-9.7-5.7c-10.6-4.9-21.3-6.2-31.2-3.7
				c-16.2,4.1-29,17.7-36.2,38.3c-7.3,21-7.7,46.7-1.3,72.3c11.6,46.1,43.9,81,75.2,81c3.4,0,6.9-0.4,10.2-1.3c4.1-1,8.2-2.8,12-5.2
				C1109.3,349.6,1109.8,349.5,1110.3,349.5z"/>
		</g>
		<g>
			<path fill="#FFFFFF" d="M1072.4,190.1c0,0-31.7-1.9-37.9,34.2"/>
			<path d="M1034.4,226.9c-0.1,0-0.3,0-0.4,0c-1.4-0.2-2.4-1.6-2.1-3c6.5-37.9,40.3-36.4,40.7-36.3c1.4,0.1,2.5,1.3,2.4,2.8
				c-0.1,1.4-1.3,2.5-2.7,2.5c-1.2-0.1-29.5-1.2-35.2,32C1036.8,226,1035.7,226.9,1034.4,226.9z"/>
		</g>
		<g>
			<path fill="#FFFFFF" d="M1110.4,175.9c0,0-5.4-34.5,29.4-56.5"/>
			<path d="M1110.4,178.5c-1.3,0-2.4-0.9-2.6-2.2c-0.1-0.4-5.3-36.5,30.6-59.1c1.2-0.8,2.8-0.4,3.6,0.8c0.8,1.2,0.4,2.8-0.8,3.6
				c-33,20.8-28.3,53.5-28.2,53.9c0.2,1.4-0.7,2.8-2.2,3C1110.6,178.5,1110.5,178.5,1110.4,178.5z"/>
		</g>
		<g>
			<path fill="#FFFFFF" d="M1048.6,95.8L1048.6,95.8L1048.6,95.8L1048.6,95.8L1048.6,95.8c0,0.5,0.5,71.9,50.6,50.7l0,0c0,0,0,0,0,0
				l0,0v0C1120.4,96.3,1049,95.8,1048.6,95.8z"/>
			<path d="M1082.1,153c-34.6,0-36.1-53.5-36.2-57c0-0.5,0.1-1.1,0.4-1.6c0.5-0.8,1.3-1.3,2.2-1.3c6.8,0.1,40.4,1.7,52.8,20.8
				c5.8,8.9,5.9,20.2,0.3,33.4c-0.2,0.6-0.6,1-1.1,1.3c-0.2,0.1-0.4,0.2-0.6,0.3C1093.5,151.7,1087.5,153,1082.1,153z M1051.3,98.5
				c0.6,10.8,4.6,49.3,30.9,49.3c4.5,0,9.6-1.1,15.1-3.3c4.5-11.2,4.4-20.5-0.3-27.6C1087.2,101.7,1060.3,99,1051.3,98.5z"/>
		</g>
	</g>
	<g>
		<g>
			<rect x="92.1" y="513.6" fill="#FFFFFF" width="254.6" height="333.8"/>
			<path d="M346.7,850H92.1c-1.4,0-2.6-1.2-2.6-2.6V513.6c0-1.4,1.2-2.6,2.6-2.6h254.6c1.4,0,2.6,1.2,2.6,2.6v333.8
				C349.3,848.8,348.2,850,346.7,850z M94.8,844.8h249.4V516.2H94.8V844.8z"/>
		</g>
		<g>
			<g>
				<path fill="#FFFFFF" d="M252.5,749c11.2-18.3,21.3-35.9,25.6-43.3c6.4-10.4,10.1-22.7,10.1-35.9c0-38-30.8-68.7-68.8-68.7
					s-68.8,30.8-68.8,68.7c0,13.2,3.7,25.5,10.1,35.9c4.2,7.4,14.4,25,25.6,43.3H252.5z"/>
				<path d="M252.5,751.6h-66.1c-0.9,0-1.8-0.5-2.2-1.2c-10.8-17.7-20.7-34.8-25.6-43.4c-6.8-11.1-10.5-24-10.5-37.2
					c0-39.3,32-71.4,71.4-71.4s71.4,32,71.4,71.4c0,13.2-3.6,26.1-10.5,37.3c-4.9,8.6-14.8,25.8-25.6,43.3
					C254.3,751.2,253.4,751.6,252.5,751.6z M187.8,746.4h63.2c10.4-17.1,19.9-33.6,24.8-42c6.4-10.4,9.8-22.4,9.8-34.6
					c0-36.5-29.7-66.1-66.2-66.1s-66.2,29.7-66.2,66.1c0,12.2,3.4,24.2,9.7,34.5C167.9,712.8,177.4,729.2,187.8,746.4z"/>
			</g>
			<g>
				<path fill="#FFFFFF" d="M190.8,766.1v21.4c0,15.8,12.8,28.6,28.6,28.6s28.6-12.8,28.6-28.6v-21.4H190.8z"/>
				<path d="M219.4,818.7c-17.2,0-31.2-14-31.2-31.2v-21.4c0-1.4,1.2-2.6,2.6-2.6h57.3c1.4,0,2.6,1.2,2.6,2.6v21.4
					C250.7,804.7,236.7,818.7,219.4,818.7z M193.4,768.7v18.8c0,14.4,11.7,26,26,26c14.4,0,26-11.7,26-26v-18.8H193.4z"/>
			</g>
			<g>
				<line fill="#FFFFFF" x1="219.4" y1="749" x2="219.4" y2="664.9"/>
				<path d="M219.4,751.6c-1.4,0-2.6-1.2-2.6-2.6v-84.1c0-1.4,1.2-2.6,2.6-2.6s2.6,1.2,2.6,2.6V749
					C222,750.5,220.9,751.6,219.4,751.6z"/>
			</g>
			<g>
				<path d="M248.1,690h-43.4c-1.4,0-2.6-1.2-2.6-2.6s1.2-2.6,2.6-2.6h43.4c1.4,0,2.6,1.2,2.6,2.6S249.5,690,248.1,690z"/>
			</g>
			<g>
				<path d="M219.4,581.6c-1.4,0-2.6-1.2-2.6-2.6v-41.8c0-1.4,1.2-2.6,2.6-2.6s2.6,1.2,2.6,2.6V579
					C222,580.5,220.9,581.6,219.4,581.6z"/>
			</g>
			<g>
				<path d="M259,588.9c-0.5,0-1-0.1-1.4-0.4c-1.2-0.8-1.6-2.4-0.8-3.6l18.2-28.2c0.8-1.2,2.4-1.6,3.6-0.8c1.2,0.8,1.6,2.4,0.8,3.6
					l-18.2,28.2C260.7,588.5,259.9,588.9,259,588.9z"/>
			</g>
			<g>
				<path d="M288.2,619.8c-0.9,0-1.8-0.5-2.3-1.3c-0.7-1.3-0.2-2.8,1-3.5l29-16.1c1.3-0.7,2.8-0.2,3.5,1c0.7,1.3,0.2,2.8-1,3.5
					l-29,16.1C289.1,619.7,288.6,619.8,288.2,619.8z"/>
			</g>
			<g>
				<path d="M179.8,588.9c-0.9,0-1.7-0.4-2.2-1.2l-18.2-28.2c-0.8-1.2-0.4-2.8,0.8-3.6c1.2-0.8,2.8-0.4,3.6,0.8l18.2,28.2
					c0.8,1.2,0.4,2.8-0.8,3.6C180.8,588.8,180.3,588.9,179.8,588.9z"/>
			</g>
			<g>
				<path d="M150.7,619.8c-0.4,0-0.9-0.1-1.3-0.3l-29-16.1c-1.3-0.7-1.7-2.3-1-3.5c0.7-1.3,2.3-1.7,3.5-1l29,16.1
					c1.3,0.7,1.7,2.3,1,3.5C152.5,619.3,151.6,619.8,150.7,619.8z"/>
			</g>
		</g>
	</g>
	<g>
		<g>
			<polygon fill="#FFFFFF" points="467,427.6 430.9,404.1 429.8,404.1 429.8,451.2 430.9,451.2 			"/>
			<path d="M430.9,453.8h-1.1c-1.4,0-2.6-1.2-2.6-2.6v-47c0-1.4,1.2-2.6,2.6-2.6h1.1c0.5,0,1,0.1,1.4,0.4l36.1,23.5
				c0.7,0.5,1.2,1.3,1.2,2.2c0,0.9-0.4,1.7-1.2,2.2l-36.1,23.5C431.9,453.6,431.4,453.8,430.9,453.8z M432.4,408.2v38.8l29.8-19.4
				L432.4,408.2z"/>
		</g>
		<g>
			<rect x="127.9" y="404.1" fill="#FFFFFF" width="26.3" height="47"/>
			<path d="M154.2,453.8h-26.3c-1.4,0-2.6-1.2-2.6-2.6v-47c0-1.4,1.2-2.6,2.6-2.6h26.3c1.4,0,2.6,1.2,2.6,2.6v47
				C156.8,452.6,155.6,453.8,154.2,453.8z M130.5,448.6h21v-41.8h-21V448.6z"/>
		</g>
		<g>
			<path fill="#FFFFFF" d="M111,404.1c-13,0-23.5,10.5-23.5,23.5c0,13,10.5,23.5,23.5,23.5h17v-47H111z"/>
			<path d="M127.9,453.8h-17c-14.4,0-26.1-11.7-26.1-26.1c0-14.4,11.7-26.1,26.1-26.1h17c1.4,0,2.6,1.2,2.6,2.6v47
				C130.5,452.6,129.4,453.8,127.9,453.8z M111,406.7c-11.5,0-20.9,9.4-20.9,20.9c0,11.5,9.4,20.9,20.9,20.9h14.3v-41.8H111z"/>
		</g>
		<g>
			<rect x="154.2" y="404.1" fill="#FFFFFF" width="275.6" height="47"/>
			<path d="M429.8,453.8H154.2c-1.4,0-2.6-1.2-2.6-2.6v-47c0-1.4,1.2-2.6,2.6-2.6h275.6c1.4,0,2.6,1.2,2.6,2.6v47
				C432.4,452.6,431.2,453.8,429.8,453.8z M156.8,448.6h270.4v-41.8H156.8V448.6z"/>
		</g>
	</g>
	<g>
		<path d="M127.9,406.7c-1.3,0-2.4-0.9-2.6-2.2c-0.1-0.5-1.7-12.3,5.9-21.1c5-5.8,12.7-8.7,22.9-8.7h57.3l15.9-7.9
			c1.3-0.6,2.9-0.1,3.5,1.2c0.6,1.3,0.1,2.9-1.2,3.5l-16.4,8.2c-0.4,0.2-0.8,0.3-1.2,0.3h-58c-8.6,0-15,2.3-19,6.9
			c-6,6.9-4.7,16.8-4.7,16.9c0.2,1.4-0.8,2.7-2.2,2.9C128.2,406.7,128,406.7,127.9,406.7z"/>
	</g>
	<g>
		<path fill="#231F20" d="M247.5,247.9c-50.6,0-84.6-20.9-86-21.8c-0.8-0.5-1.2-1.3-1.2-2.2v-62.4c0-1.4,1.2-2.6,2.6-2.6
			c1.4,0,2.6,1.2,2.6,2.6v60.9c6.5,3.7,38.2,20.3,82,20.3c43.8,0,75.5-16.6,82-20.3v-60.9c0-1.4,1.2-2.6,2.6-2.6
			c1.4,0,2.6,1.2,2.6,2.6v62.4c0,0.9-0.5,1.7-1.2,2.2C332.1,226.9,298.1,247.9,247.5,247.9z"/>
	</g>
	<g>
		<polygon fill="#FFFFFF" points="247.5,210.2 95.9,145.4 247.5,80.7 399.1,145.4 		"/>
		<path fill="#231F20" d="M247.5,212.8c-0.3,0-0.7-0.1-1-0.2L94.8,147.8c-1-0.4-1.6-1.4-1.6-2.4s0.6-2,1.6-2.4l151.6-64.8
			c0.7-0.3,1.4-0.3,2,0L400.1,143c1,0.4,1.6,1.4,1.6,2.4s-0.6,2-1.6,2.4l-151.6,64.8C248.2,212.7,247.8,212.8,247.5,212.8z
			 M102.5,145.4l145,61.9l145-61.9l-145-61.9L102.5,145.4z"/>
	</g>
	<g>
		<path fill="#231F20" d="M117.5,285.8c-1.4,0-2.6-1.2-2.6-2.6V154.7c0-1.4,1.2-2.6,2.6-2.6c1.4,0,2.6,1.2,2.6,2.6v128.5
			C120.1,284.6,118.9,285.8,117.5,285.8z"/>
	</g>
	<g>
		<path fill="#FFFFFF" d="M136.9,302.1c0,14.4-8.7,26.1-19.4,26.1c-10.7,0-19.4-11.7-19.4-26.1s8.7-26.1,19.4-26.1
			C128.2,276,136.9,287.7,136.9,302.1z"/>
		<path fill="#231F20" d="M117.5,330.9c-12.2,0-22-12.9-22-28.7s9.9-28.7,22-28.7c12.1,0,22,12.9,22,28.7S129.6,330.9,117.5,330.9z
			 M117.5,278.6c-9.3,0-16.8,10.6-16.8,23.5s7.5,23.5,16.8,23.5c9.3,0,16.8-10.6,16.8-23.5S126.7,278.6,117.5,278.6z"/>
	</g>
	<g>
		<g>
			<polygon fill="#FFFFFF" points="617.2,222.5 470,331.4 470,331.4 502.7,375.9 			"/>
			<path d="M502.7,378.5c-0.7-0.1-1.6-0.4-2.1-1.1L467.9,333c-0.9-1.2-0.6-2.8,0.5-3.6l147.2-109c1-0.8,2.5-0.7,3.4,0.3
				c0.9,0.9,1,2.4,0.2,3.4L504.8,377.4C504.3,378.1,503.5,378.5,502.7,378.5z M473.7,332l29,39.5l101.8-136.4L473.7,332z"/>
		</g>
		<g>
			<polygon fill="#FFFFFF" points="411.2,251.4 440.7,291.6 617.2,222.5 			"/>
			<path d="M440.7,294.2c-0.8,0-1.6-0.4-2.1-1.1l-29.6-40.2c-0.5-0.7-0.7-1.7-0.3-2.6c0.4-0.8,1.1-1.4,2-1.6l206-28.9
				c1.3-0.2,2.5,0.6,2.9,1.9c0.3,1.3-0.3,2.6-1.6,3.1L441.7,294C441.4,294.2,441.1,294.2,440.7,294.2z M415.9,253.4l25.8,35.1
				l153.9-60.3L415.9,253.4z"/>
		</g>
		<g>
			<polygon fill="#FFFFFF" points="440.7,291.6 440.5,291.7 438.7,337.2 470,331.4 617.2,222.5 			"/>
			<path d="M438.7,339.8c-0.6,0-1.2-0.2-1.7-0.6c-0.6-0.5-0.9-1.3-0.9-2.1l1.8-45.4c0-1,0.7-1.9,1.6-2.3L616.3,220
				c1.2-0.5,2.6,0,3.2,1.2c0.6,1.1,0.3,2.6-0.7,3.4l-147.2,109c-0.3,0.2-0.7,0.4-1.1,0.5l-31.4,5.7
				C439,339.7,438.8,339.8,438.7,339.8z M443,293.5l-1.6,40.5l27.6-5l130.9-96.9L443,293.5z"/>
		</g>
		<g>
			<polygon fill="#FFFFFF" points="470,331.4 470,331.4 470,331.4 			"/>
			<path d="M470,334c-0.8,0-1.5-0.4-2.1-1l-0.1-0.1c-0.3-0.5-0.5-1-0.5-1.5c0-0.8,0.4-1.6,1.1-2.1c1.2-0.9,2.8-0.6,3.6,0.6
				c0.3,0.5,0.5,1,0.5,1.6c0,0.8-0.4,1.6-1,2.1C471.1,333.9,470.5,334,470,334z"/>
		</g>
	</g>
	<g>
		<polygon fill="#FFFFFF" points="929.9,95.8 700,95.8 700,257.1 738.6,257.1 738.6,291.6 785.3,257.1 929.9,257.1 		"/>
		<path d="M738.6,294.2c-0.4,0-0.8-0.1-1.2-0.3c-0.9-0.4-1.4-1.3-1.4-2.3v-32h-36c-1.4,0-2.6-1.2-2.6-2.6V95.8
			c0-1.4,1.2-2.6,2.6-2.6h229.9c1.4,0,2.6,1.2,2.6,2.6v161.2c0,1.4-1.2,2.6-2.6,2.6H786.2l-46,34.1
			C739.7,294.1,739.2,294.2,738.6,294.2z M702.6,254.4h36c1.4,0,2.6,1.2,2.6,2.6v29.4l42.5-31.5c0.4-0.3,1-0.5,1.6-0.5h141.9v-156
			H702.6V254.4z"/>
	</g>
	<g>
		<path d="M901.4,138.7H728.5c-1.4,0-2.6-1.2-2.6-2.6s1.2-2.6,2.6-2.6h172.9c1.4,0,2.6,1.2,2.6,2.6S902.8,138.7,901.4,138.7z"/>
	</g>
	<g>
		<path d="M901.4,178.5H728.5c-1.4,0-2.6-1.2-2.6-2.6c0-1.4,1.2-2.6,2.6-2.6h172.9c1.4,0,2.6,1.2,2.6,2.6
			C904,177.3,902.8,178.5,901.4,178.5z"/>
	</g>
	<g>
		<path d="M901.4,218.2H728.5c-1.4,0-2.6-1.2-2.6-2.6c0-1.4,1.2-2.6,2.6-2.6h172.9c1.4,0,2.6,1.2,2.6,2.6
			C904,217.1,902.8,218.2,901.4,218.2z"/>
	</g>
	<g>
		<path fill="#231F20" d="M502.3,83.3H392.8c-1.4,0-2.6-1.2-2.6-2.6s1.2-2.6,2.6-2.6h109.6c1.4,0,2.6,1.2,2.6,2.6
			S503.8,83.3,502.3,83.3z"/>
	</g>
	<g>
		<path fill="#231F20" d="M557.1,115.7H448.4c-1.4,0-2.6-1.2-2.6-2.6c0-1.4,1.2-2.6,2.6-2.6h108.7c1.4,0,2.6,1.2,2.6,2.6
			C559.7,114.5,558.5,115.7,557.1,115.7z"/>
	</g>
	<g>
		<path fill="#231F20" d="M1300.4,102.8h-94.5c-1.4,0-2.6-1.2-2.6-2.6s1.2-2.6,2.6-2.6h94.5c1.4,0,2.6,1.2,2.6,2.6
			S1301.9,102.8,1300.4,102.8z"/>
	</g>
	<g>
		<path fill="#231F20" d="M1300.4,150.3h-34.1c-1.4,0-2.6-1.2-2.6-2.6c0-1.4,1.2-2.6,2.6-2.6h34.1c1.4,0,2.6,1.2,2.6,2.6
			C1303,149.1,1301.9,150.3,1300.4,150.3z"/>
	</g>
	<g>
		<path fill="#231F20" d="M1285.9,417.5c0,0-0.1,0-0.1,0h-65.2c-0.9,0-1.8-0.5-2.3-1.3s-0.5-1.8,0-2.6l32.6-56.5
			c0.9-1.6,3.6-1.6,4.5,0l32.3,55.9c0.5,0.5,0.8,1.1,0.8,1.8C1288.5,416.3,1287.3,417.5,1285.9,417.5z M1225.1,412.3h56.2
			l-28.1-48.7L1225.1,412.3z"/>
	</g>
</g>
</svg>
